<svg width="23" height="15" viewBox="0 0 23 15" fill="none" xmlns="http://www.w3.org/2000/svg">
<path d="M11.1478 2C13.0112 1.99389 14.8386 2.50678 16.4198 3.47973C18.001 4.45267 19.2719 5.84616 20.0863 7.5C18.4141 10.87 14.9988 13 11.1478 13C7.29674 13 3.88146 10.87 2.20929 7.5C3.02371 5.84616 4.29457 4.45267 5.87578 3.47973C7.45699 2.50678 9.28435 1.99389 11.1478 2ZM11.1478 0C6.08061 0 1.75324 3.11 0 7.5C1.75324 11.89 6.08061 15 11.1478 15C16.215 15 20.5423 11.89 22.2956 7.5C20.5423 3.11 16.215 0 11.1478 0ZM11.1478 5C11.8197 5 12.4642 5.26339 12.9393 5.73223C13.4145 6.20107 13.6814 6.83696 13.6814 7.5C13.6814 8.16304 13.4145 8.79893 12.9393 9.26777C12.4642 9.73661 11.8197 10 11.1478 10C10.4758 10 9.83142 9.73661 9.35627 9.26777C8.88113 8.79893 8.6142 8.16304 8.6142 7.5C8.6142 6.83696 8.88113 6.20107 9.35627 5.73223C9.83142 5.26339 10.4758 5 11.1478 5ZM11.1478 3C8.63447 3 6.58733 5.02 6.58733 7.5C6.58733 9.98 8.63447 12 11.1478 12C13.6611 12 15.7083 9.98 15.7083 7.5C15.7083 5.02 13.6611 3 11.1478 3Z" fill="black"/>
</svg>
