<svg width="18" height="17" viewBox="0 0 18 17" fill="none" xmlns="http://www.w3.org/2000/svg">
<path d="M14.8637 17H1.35125C0.993039 16.9995 0.649655 16.8588 0.396363 16.6089C0.143071 16.359 0.000536107 16.0201 0 15.6667V2.33333C0.000536107 1.97987 0.143071 1.64104 0.396363 1.39111C0.649655 1.14117 0.993039 1.00053 1.35125 1H8.10749V2.33333H1.35125V15.6667H14.8637V9H16.215V15.6667C16.2144 16.0201 16.0719 16.359 15.8186 16.6089C15.5653 16.8588 15.2219 16.9995 14.8637 17Z" fill="black"/>
<path d="M10.4722 0V1.33333H14.9218L9.12091 7.05733L10.0762 8L15.8771 2.276V6.66667H17.2284V0H10.4722Z" fill="black"/>
</svg>
