<svg width="221" height="33" viewBox="0 0 221 33" fill="none" xmlns="http://www.w3.org/2000/svg">
<path fill-rule="evenodd" clip-rule="evenodd" d="M121.083 20.5527V20.6274C121.076 21.3078 120.495 21.8561 119.789 21.8561H104.461C104.996 26.0651 107.988 28.1357 111.621 28.1357C113.683 28.1357 115.561 27.5172 117.167 26.4387C117.723 26.0651 118.487 26.1861 118.903 26.7031L119.285 27.1748C119.72 27.7157 119.624 28.5025 119.057 28.9157C116.696 30.6336 114.099 31.1921 111.399 31.1921C105.13 31.1921 100.717 26.9397 100.717 20.6166C100.717 14.3785 105.151 10.0417 111.176 10.0417C116.939 10.0417 121.019 14.3351 121.083 20.5527ZM104.508 19.0353H117.384C116.918 15.4467 114.547 13.1391 111.111 13.1391C107.409 13.1391 105.04 15.5745 104.508 19.0353ZM97.9726 10.4682C98.8904 10.4682 99.5113 11.3692 99.1581 12.1852L91.4135 30.0256C91.2126 30.4851 90.7466 30.7855 90.2285 30.7855H87.6824C87.1638 30.7855 86.6977 30.4865 86.4969 30.0271L78.7133 12.1862C78.3561 11.3706 78.9784 10.4682 79.8963 10.4682H81.0424C81.564 10.4682 82.0341 10.7741 82.2314 11.2409L88.9767 27.2389L95.7422 11.2394C95.939 10.7726 96.4091 10.4682 96.9308 10.4682H97.9726ZM75.6744 2.36473C75.7442 3.7027 74.6058 4.86604 73.2199 4.93189C71.7369 5.00262 70.5357 3.93293 70.5357 2.49936C70.5357 1.0892 71.6635 0 73.0818 0C74.4783 0 75.6046 1.02189 75.6744 2.36473ZM74.9231 11.7077V29.5256C74.9231 30.2105 74.3493 30.7651 73.6395 30.7651H72.5956C71.8857 30.7651 71.3119 30.2105 71.3119 29.5256V11.7077C71.3119 11.0233 71.8857 10.4682 72.5956 10.4682H73.6395C74.3493 10.4682 74.9231 11.0233 74.9231 11.7077ZM67.3803 28.1463C67.7694 28.7477 67.5579 29.5394 66.9163 29.8867C65.4869 30.6578 63.76 31.192 61.7375 31.192C57.1938 31.192 54.4468 28.7775 54.4468 23.6071V13.652H51.2333C50.5234 13.652 49.9481 13.0974 49.9481 12.4131V11.7078C49.9481 11.0234 50.5234 10.4683 51.2333 10.4683H54.4468V5.34133C54.4468 4.65698 55.0226 4.1019 55.7325 4.1019H56.7961C57.506 4.1019 58.0813 4.65698 58.0813 5.34133V10.4683H65.6392C66.3491 10.4683 66.9249 11.0234 66.9249 11.7078V12.4131C66.9249 13.0974 66.3491 13.652 65.6392 13.652H58.0813V23.5427C58.0813 26.5976 59.7652 27.9234 62.0492 27.9234C63.2095 27.9234 64.3358 27.6083 65.3361 27.1244C65.9316 26.8376 66.6542 27.0278 67.0074 27.5722L67.3803 28.1463ZM48.2421 27.1231C48.7263 27.6465 48.6636 28.4489 48.1075 28.9016C46.2677 30.3985 43.8775 31.1921 41.2383 31.1921C34.7237 31.1921 30.311 26.6632 30.311 20.6167C30.311 14.5702 34.7237 10.0412 41.2383 10.0412C43.8704 10.0412 46.2839 10.8158 48.1075 12.325C48.6651 12.786 48.7101 13.604 48.2062 14.119L47.5752 14.76C47.1234 15.2234 46.3806 15.2756 45.8574 14.8883C44.5034 13.8893 42.9829 13.3308 41.1482 13.3308C37.0942 13.3308 34.0138 16.3643 34.0138 20.6167C34.0138 24.8672 37.0942 27.9236 41.1482 27.9236C42.9596 27.9236 44.5788 27.2958 45.9161 26.3329C46.4545 25.9461 47.2074 26.0081 47.6536 26.4905L48.2421 27.1231ZM28.7517 29.0591C29.0938 29.8732 28.4735 30.7653 27.5612 30.7653H26.1515C25.6278 30.7653 25.1562 30.4575 24.9594 29.9888L21.8699 22.6024H6.82391L3.75411 29.9873C3.5588 30.4556 3.08723 30.7653 2.56151 30.7653H1.2849C0.374129 30.7653 -0.24823 29.8732 0.0963453 29.0591L11.6616 1.62707C11.859 1.16027 12.3285 0.854435 12.8522 0.854435H15.9756C16.4973 0.854435 16.9674 1.16027 17.1647 1.62707L28.7517 29.0591ZM20.3868 19.0353L14.3585 4.57226L8.30645 19.0353H20.3868Z" fill="black"/>
<path d="M140.086 33C136.833 33 133.887 32.3055 131.247 30.9164C128.639 29.4971 126.582 27.5494 125.079 25.0733C123.605 22.5971 122.869 19.8039 122.869 16.6936C122.869 13.5833 123.621 10.79 125.125 8.31386C126.628 5.8377 128.685 3.90508 131.293 2.51602C133.933 1.09675 136.879 0.38712 140.132 0.38712C142.771 0.38712 145.181 0.840077 147.36 1.74599C149.539 2.6519 151.38 3.96548 152.884 5.68671L149.017 9.26507C146.685 6.78891 143.815 5.55083 140.408 5.55083C138.199 5.55083 136.219 6.03398 134.47 7.00029C132.72 7.9364 131.355 9.24997 130.373 10.941C129.391 12.632 128.899 14.5496 128.899 16.6936C128.899 18.8376 129.391 20.7551 130.373 22.4461C131.355 24.1371 132.72 25.4658 134.47 26.4321C136.219 27.3682 138.199 27.8363 140.408 27.8363C143.815 27.8363 146.685 26.5831 149.017 24.0768L152.884 27.7004C151.38 29.4216 149.523 30.7352 147.314 31.6411C145.135 32.547 142.725 33 140.086 33Z" fill="black"/>
<path d="M185.917 32.547L185.871 11.5299L175.283 28.9234H172.613L162.025 11.8016V32.547H156.316V0.840076H161.242L174.04 21.8573L186.608 0.840076H191.534L191.58 32.547H185.917Z" fill="black"/>
<path d="M207.972 33C205.486 33 203.077 32.6527 200.744 31.9582C198.443 31.2637 196.617 30.3427 195.266 29.1952L197.338 24.6203C198.657 25.647 200.269 26.4925 202.171 27.1569C204.105 27.791 206.038 28.1081 207.972 28.1081C210.366 28.1081 212.146 27.7306 213.312 26.9757C214.509 26.2207 215.107 25.2242 215.107 23.9862C215.107 23.0802 214.77 22.3404 214.095 21.7667C213.45 21.1627 212.622 20.6947 211.609 20.3625C210.596 20.0303 209.215 19.6529 207.466 19.2301C205.01 18.6564 203.015 18.0826 201.481 17.5089C199.977 16.9351 198.673 16.0443 197.568 14.8364C196.494 13.5984 195.957 11.9375 195.957 9.85391C195.957 8.10248 196.432 6.51713 197.384 5.09787C198.366 3.64841 199.824 2.50092 201.757 1.6554C203.721 0.809879 206.115 0.38712 208.939 0.38712C210.903 0.38712 212.836 0.628697 214.739 1.11185C216.642 1.595 218.284 2.28954 219.665 3.19545L217.778 7.77031C216.366 6.95499 214.893 6.33595 213.358 5.91319C211.824 5.49043 210.335 5.27905 208.893 5.27905C206.53 5.27905 204.765 5.67161 203.599 6.45674C202.463 7.24186 201.895 8.28366 201.895 9.58214C201.895 10.4881 202.217 11.2279 202.862 11.8016C203.537 12.3754 204.381 12.8283 205.394 13.1605C206.407 13.4927 207.788 13.8701 209.537 14.2929C211.931 14.8364 213.895 15.4102 215.43 16.0141C216.964 16.5879 218.269 17.4787 219.343 18.6866C220.448 19.8945 221 21.5251 221 23.5785C221 25.3299 220.509 26.9153 219.527 28.3345C218.575 29.7538 217.118 30.8862 215.153 31.7317C213.189 32.5772 210.795 33 207.972 33Z" fill="black"/>
</svg>
