<svg width="136" height="26" viewBox="0 0 136 26" fill="none" xmlns="http://www.w3.org/2000/svg">
<path fill-rule="evenodd" clip-rule="evenodd" d="M131.209 18.061C132.818 18.061 133.872 16.8284 133.872 15.3246C133.872 13.8122 132.802 12.5957 131.209 12.5957C129.641 12.5957 128.547 13.772 128.547 15.3246C128.547 16.8847 129.641 18.061 131.209 18.061ZM131.365 11.3639C133.537 11.3639 135.244 13.0283 135.244 15.3246C135.244 17.6207 133.537 19.2851 131.365 19.2851C130.131 19.2851 129.242 18.8209 128.629 18.1088V18.6611C128.629 18.9174 128.417 19.1253 128.156 19.1253H127.771C127.51 19.1253 127.298 18.9174 127.298 18.6611V8.06668C127.298 7.81111 127.51 7.60322 127.771 7.60322H128.156C128.417 7.60322 128.629 7.81111 128.629 8.06668V12.54C129.242 11.8281 130.131 11.3639 131.365 11.3639ZM125.444 11.9878V18.6612C125.444 18.9175 125.232 19.1254 124.971 19.1254H124.578C124.317 19.1254 124.105 18.9175 124.105 18.6612V18.1087C123.485 18.821 122.586 19.2852 121.369 19.2852C119.18 19.2852 117.489 17.6206 117.489 15.3245C117.489 13.0284 119.18 11.3638 121.369 11.3638C122.586 11.3638 123.485 11.8201 124.105 12.5479V11.9878C124.105 11.7315 124.317 11.5236 124.578 11.5236H124.971C125.232 11.5236 125.444 11.7315 125.444 11.9878ZM124.186 15.3245C124.186 13.7721 123.091 12.5956 121.523 12.5956C119.907 12.5956 118.853 13.8123 118.853 15.3245C118.853 16.8283 119.924 18.0609 121.523 18.0609C123.091 18.0609 124.186 16.8846 124.186 15.3245ZM116.093 8.06668V18.6611C116.093 18.9174 115.88 19.1253 115.619 19.1253H115.234C114.973 19.1253 114.761 18.9174 114.761 18.6611V8.06668C114.761 7.81111 114.973 7.60322 115.234 7.60322H115.619C115.88 7.60322 116.093 7.81111 116.093 8.06668ZM112.775 8.06668V18.6611C112.775 18.9174 112.564 19.1253 112.302 19.1253H111.918C111.657 19.1253 111.445 18.9174 111.445 18.6611V8.06668C111.445 7.81111 111.657 7.60322 111.918 7.60322H112.302C112.564 7.60322 112.775 7.81111 112.775 8.06668ZM106.018 11.3638C108.37 11.3638 110.125 13.06 110.125 15.3245C110.125 17.589 108.37 19.2852 106.018 19.2852C103.666 19.2852 101.918 17.589 101.918 15.3245C101.918 13.06 103.666 11.3638 106.018 11.3638ZM108.754 15.3245C108.754 13.7319 107.569 12.5956 106.018 12.5956C104.458 12.5956 103.282 13.7319 103.282 15.3245C103.282 16.9164 104.458 18.0609 106.018 18.0609C107.569 18.0609 108.754 16.9164 108.754 15.3245ZM101.26 9.67102C101.428 9.88129 101.375 10.1889 101.148 10.3384L100.717 10.6226C100.516 10.7547 100.246 10.7176 100.091 10.5358C99.3302 9.64435 98.2029 9.10709 96.867 9.10709C94.3515 9.10709 92.4485 10.8919 92.4485 13.5241C92.4485 16.1564 94.3515 17.9406 96.867 17.9406C98.1753 17.9406 99.3091 17.4207 100.072 16.5331C100.232 16.3467 100.512 16.3129 100.713 16.4569L101.126 16.7519C101.345 16.9087 101.388 17.2161 101.215 17.42C99.9474 18.9116 97.7259 19.6476 95.3513 19.1259C92.9605 18.5996 91.2194 16.6122 90.9817 14.2233C90.6116 10.503 93.2037 7.75543 96.867 7.75543C98.6728 7.75543 100.3 8.47209 101.26 9.67102ZM89.2359 15.3005V15.3285C89.2333 15.5833 89.0192 15.7887 88.7589 15.7887H83.1108C83.3077 17.365 84.4104 18.1405 85.7492 18.1405C86.509 18.1405 87.2009 17.9089 87.7929 17.5049C87.9976 17.365 88.2792 17.4103 88.4325 17.604L88.5732 17.7806C88.7338 17.9832 88.6982 18.2779 88.4893 18.4326C87.6191 19.076 86.6624 19.2852 85.6673 19.2852C83.3572 19.2852 81.7311 17.6926 81.7311 15.3245C81.7311 12.9882 83.3652 11.3639 85.5853 11.3639C87.709 11.3639 89.2122 12.9719 89.2359 15.3005ZM83.128 14.7322H87.8729C87.701 13.3882 86.8274 12.524 85.5614 12.524C84.1969 12.524 83.3241 13.4361 83.128 14.7322ZM80.7197 11.5237C81.058 11.5237 81.2868 11.8611 81.1566 12.1667L78.3027 18.8483C78.2287 19.0204 78.057 19.1329 77.8661 19.1329H76.9278C76.7367 19.1329 76.565 19.0209 76.4909 18.8488L73.6227 12.1671C73.4911 11.8617 73.7204 11.5237 74.0586 11.5237H74.481C74.6732 11.5237 74.8464 11.6382 74.9191 11.8131L77.4048 17.8046L79.8979 11.8125C79.9704 11.6377 80.1436 11.5237 80.3358 11.5237H80.7197ZM72.5029 8.48879C72.5286 8.98988 72.1091 9.42557 71.5984 9.45024C71.0519 9.47672 70.6092 9.07611 70.6092 8.53921C70.6092 8.01108 71.0249 7.60315 71.5475 7.60315C72.0621 7.60315 72.4771 7.98587 72.5029 8.48879ZM72.226 11.9879V18.661C72.226 18.9175 72.0146 19.1252 71.753 19.1252H71.3683C71.1067 19.1252 70.8953 18.9175 70.8953 18.661V11.9879C70.8953 11.7316 71.1067 11.5237 71.3683 11.5237H71.753C72.0146 11.5237 72.226 11.7316 72.226 11.9879ZM69.4465 18.1445C69.5899 18.3697 69.5119 18.6662 69.2755 18.7963C68.7488 19.0851 68.1124 19.2851 67.3671 19.2851C65.6928 19.2851 64.6805 18.3809 64.6805 16.4444V12.7161H63.4963C63.2347 12.7161 63.0227 12.5084 63.0227 12.2521V11.9879C63.0227 11.7316 63.2347 11.5237 63.4963 11.5237H64.6805V9.60358C64.6805 9.34728 64.8927 9.13939 65.1543 9.13939H65.5462C65.8078 9.13939 66.0198 9.34728 66.0198 9.60358V11.5237H68.8049C69.0665 11.5237 69.2787 11.7316 69.2787 11.9879V12.2521C69.2787 12.5084 69.0665 12.7161 68.8049 12.7161H66.0198V16.4203C66.0198 17.5644 66.6403 18.061 67.482 18.061C67.9095 18.061 68.3246 17.943 68.6932 17.7617C68.9127 17.6543 69.1789 17.7256 69.3091 17.9294L69.4465 18.1445ZM62.3941 17.7613C62.5725 17.9573 62.5494 18.2578 62.3445 18.4273C61.6665 18.988 60.7857 19.2852 59.8132 19.2852C57.4126 19.2852 55.7865 17.589 55.7865 15.3245C55.7865 13.06 57.4126 11.3638 59.8132 11.3638C60.7831 11.3638 61.6725 11.6539 62.3445 12.2191C62.55 12.3917 62.5665 12.6981 62.3808 12.891L62.1483 13.131C61.9818 13.3046 61.7081 13.3241 61.5153 13.1791C61.0164 12.805 60.4561 12.5958 59.78 12.5958C58.2861 12.5958 57.151 13.7319 57.151 15.3245C57.151 16.9164 58.2861 18.061 59.78 18.061C60.4475 18.061 61.0441 17.8259 61.5369 17.4653C61.7353 17.3205 62.0128 17.3437 62.1772 17.5243L62.3941 17.7613ZM55.2119 18.4863C55.3379 18.7912 55.1093 19.1253 54.7732 19.1253H54.2537C54.0607 19.1253 53.8869 19.0101 53.8144 18.8345L52.6759 16.0682H47.1315L46.0003 18.834C45.9283 19.0093 45.7545 19.1253 45.5608 19.1253H45.0904C44.7547 19.1253 44.5254 18.7912 44.6524 18.4863L48.9142 8.21252C48.9869 8.03769 49.1599 7.92315 49.3529 7.92315H50.5039C50.6961 7.92315 50.8694 8.03769 50.9421 8.21252L55.2119 18.4863ZM52.1294 14.7322L49.908 9.31555L47.6778 14.7322H52.1294Z" fill="#F4F5F7"/>
<path fill-rule="evenodd" clip-rule="evenodd" d="M10.8794 4.99205L9.15674 8.34957C10.5392 9.25914 11.759 10.3676 12.7918 11.476L14.659 7.82146C14.8121 7.51105 15.1272 7.31475 15.4723 7.31475H16.2233C16.5686 7.31475 16.8838 7.51105 17.0368 7.82146L18.8608 11.3881C19.9753 10.2423 21.2129 9.23089 22.5465 8.3704L20.813 4.99205C19.6237 2.67449 18.5208 2.113 16.9017 1.88789C16.6178 1.84852 16.174 1.81999 15.8461 1.81999C15.5184 1.81999 15.0746 1.84852 14.7907 1.88789C12.692 2.18005 11.7968 3.20402 10.8794 4.99205ZM15.8179 15.3725C16.3413 14.4857 16.9225 13.6441 17.5591 12.8546L15.8478 9.38068L14.081 12.9673C14.8089 13.8746 15.3938 14.7168 15.8179 15.3725ZM7.51171 9.46884L7.13936 9.25286C6.92914 9.13103 6.85148 8.86512 6.96242 8.64857L9.26597 4.15924C10.3736 2.0003 11.695 0.481031 14.5418 0.0853074C14.9088 0.0342371 15.4327 0 15.8461 0C16.2597 0 16.7836 0.0342371 17.1506 0.0853074C19.9974 0.481031 21.3185 2.0003 22.4262 4.15924L24.1156 7.45113C26.8839 5.98493 29.9845 5.12986 33.212 5.02201C33.7692 5.00347 34.2315 5.49819 34.1373 6.0845C34.0668 6.52188 33.6691 6.82688 33.2276 6.84257C26.3286 7.08965 20.0632 11.0611 16.8675 17.217C16.8607 17.2304 16.8522 17.2421 16.8445 17.2544C16.8454 17.2549 16.8456 17.2552 16.8462 17.2558C16.8385 17.2692 16.8289 17.2809 16.8206 17.2937C16.8101 17.31 16.7998 17.3263 16.7885 17.3414C16.5726 17.6458 16.2224 17.8315 15.8481 17.8315H15.8444C15.5002 17.8315 15.1747 17.6732 14.9614 17.4024L14.8459 17.2555C14.1174 16.005 11.4355 11.7465 7.51171 9.46884ZM33.1988 11.5653C33.7618 11.5379 34.2269 12.0283 34.1398 12.6175C34.075 13.0557 33.681 13.3621 33.2398 13.3855C31.4201 13.4814 29.6246 14.0012 27.981 14.8503C28.0143 14.9119 28.0496 14.9781 28.09 15.0529C28.6031 16.0089 29.4932 17.6803 30.7354 20.0201C31.3937 21.2606 31.4028 22.5345 30.7599 23.6079C30.1512 24.6253 29.0045 25.3086 27.9071 25.3086C27.9071 25.3086 26.1778 25.3097 26.1127 25.3097C24.7721 25.3097 22.8693 25.1876 21.7221 22.3733L21.4265 21.6498C21.0041 22.2786 20.5478 22.8997 20.1246 23.4632C18.7677 25.2689 17.2072 25.3097 15.9354 25.3097H15.7559C14.4852 25.3097 12.9246 25.2692 11.5681 23.4632C11.122 22.8695 10.7087 22.2575 10.3102 21.6529L9.96116 22.3962C8.8128 25.1882 6.91688 25.3097 5.57964 25.3097C5.5145 25.3097 3.78528 25.3086 3.78528 25.3086C2.68784 25.3086 1.54119 24.6253 0.932446 23.6079C0.289854 22.5345 0.298673 21.2606 0.956909 20.0201L2.62554 16.8774L4.31124 13.7022C4.43015 13.4783 4.70863 13.3918 4.92994 13.5151C6.62361 14.4586 9.16809 16.4814 11.479 20.1231C11.9805 20.914 12.4752 21.6469 13.0171 22.3679C13.8611 23.4915 14.6931 23.4909 15.8455 23.4898C16.9981 23.4903 17.8316 23.4912 18.6755 22.3679C19.348 21.4726 20.1066 20.4304 20.6315 19.4917C23.1848 14.9242 28.1179 11.8126 33.1988 11.5653ZM29.1337 20.8755C27.556 17.9037 26.7926 16.474 26.423 15.7864C24.9151 16.8309 23.5998 18.1719 22.6048 19.7339L23.4012 21.684C24.1411 23.4989 25.0451 23.4952 26.2956 23.4892L27.9071 23.4886C28.2988 23.4886 28.8865 23.2019 29.2045 22.6709C29.5148 22.1528 29.4909 21.5485 29.1337 20.8755ZM8.2911 21.6846C8.29565 21.6729 8.89444 20.3973 9.13793 19.8795C8.10336 18.3596 6.98089 16.9345 5.29035 15.7302L4.22733 17.7325L2.55869 20.8758C2.20141 21.5485 2.17752 22.1528 2.48786 22.6709C2.80589 23.2019 3.39358 23.4886 3.78528 23.4886L5.39674 23.4892C6.64864 23.4952 7.55122 23.4989 8.2911 21.6846Z" fill="#F4F5F7"/>
<g opacity="0.2">
<path opacity="0.1" d="M9.63914 23.069C7.00837 19.8751 4.6482 17.8465 2.55862 16.9833C2.55524 16.9819 2.92367 16.2877 3.66391 14.9006C4.36178 15.1846 4.89074 15.4578 5.25081 15.7201C7.15947 17.1104 8.59298 18.8975 10.2873 21.6807C10.3 21.7017 10.084 22.1644 9.63914 23.069Z" fill="#F4F5F7"/>
<path opacity="0.1" d="M22.0286 23.0912C24.673 19.8871 27.04 17.8534 29.1296 16.9902C29.1329 16.9888 28.7506 16.2754 27.9826 14.8501C27.3091 15.2168 26.7909 15.5289 26.4278 15.7865C24.6569 17.043 23.8682 17.9064 22.6049 19.7321C22.1513 20.3875 21.8142 20.9433 21.4276 21.6525C21.4158 21.6742 21.6161 22.1537 22.0286 23.0912Z" fill="#F4F5F7"/>
</g>
</svg>
