<svg width="116" height="18" viewBox="0 0 116 18" fill="none" xmlns="http://www.w3.org/2000/svg">
<path fill-rule="evenodd" clip-rule="evenodd" d="M63.1249 10.8899V10.9295C63.1212 11.29 62.8184 11.5805 62.4502 11.5805H54.4595C54.7381 13.8106 56.2981 14.9078 58.1921 14.9078C59.267 14.9078 60.246 14.58 61.0835 14.0086C61.3731 13.8106 61.7714 13.8747 61.9883 14.1487L62.1874 14.3986C62.4146 14.6852 62.3642 15.1021 62.0687 15.321C60.8376 16.2313 59.4841 16.5272 58.0763 16.5272C54.808 16.5272 52.5075 14.274 52.5075 10.9238C52.5075 7.61847 54.8193 5.32061 57.9602 5.32061C60.9648 5.32061 63.0914 7.59547 63.1249 10.8899ZM54.4838 10.0859H61.1966C60.9534 8.18447 59.7176 6.96176 57.9265 6.96176C55.9961 6.96176 54.7613 8.25219 54.4838 10.0859ZM51.0767 5.54662C51.5552 5.54662 51.8789 6.02397 51.6947 6.45636L47.6572 15.9091C47.5525 16.1526 47.3095 16.3118 47.0394 16.3118H45.712C45.4417 16.3118 45.1987 16.1534 45.094 15.9099L41.0361 6.45687C40.8499 6.02475 41.1743 5.54662 41.6529 5.54662H42.2503C42.5223 5.54662 42.7674 5.70867 42.8702 5.956L46.3868 14.4326L49.9139 5.95523C50.0165 5.70789 50.2616 5.54662 50.5335 5.54662H51.0767ZM39.4518 1.25296C39.4882 1.96188 38.8947 2.57828 38.1722 2.61317C37.399 2.65065 36.7728 2.08387 36.7728 1.32429C36.7728 0.577115 37.3608 0 38.1002 0C38.8282 0 39.4154 0.54145 39.4518 1.25296ZM39.0602 6.20334V15.6442C39.0602 16.0071 38.761 16.3009 38.3909 16.3009H37.8467C37.4766 16.3009 37.1775 16.0071 37.1775 15.6442V6.20334C37.1775 5.84073 37.4766 5.54662 37.8467 5.54662H38.3909C38.761 5.54662 39.0602 5.84073 39.0602 6.20334ZM35.1278 14.9134C35.3307 15.232 35.2204 15.6515 34.8859 15.8355C34.1407 16.2441 33.2404 16.5271 32.186 16.5271C29.8172 16.5271 28.3851 15.2478 28.3851 12.5082V7.23357H26.7098C26.3397 7.23357 26.0398 6.93971 26.0398 6.57711V6.20339C26.0398 5.84079 26.3397 5.54667 26.7098 5.54667H28.3851V2.83012C28.3851 2.46751 28.6853 2.1734 29.0554 2.1734H29.6099C29.98 2.1734 30.2799 2.46751 30.2799 2.83012V5.54667H34.2201C34.5902 5.54667 34.8904 5.84079 34.8904 6.20339V6.57711C34.8904 6.93971 34.5902 7.23357 34.2201 7.23357H30.2799V12.4741C30.2799 14.0928 31.1578 14.7953 32.3485 14.7953C32.9534 14.7953 33.5406 14.6283 34.0621 14.3719C34.3726 14.22 34.7493 14.3207 34.9334 14.6092L35.1278 14.9134ZM25.1504 14.3712C25.4028 14.6486 25.3701 15.0737 25.0802 15.3136C24.1211 16.1067 22.8749 16.5272 21.499 16.5272C18.1027 16.5272 15.8022 14.1275 15.8022 10.9238C15.8022 7.72007 18.1027 5.32037 21.499 5.32037C22.8712 5.32037 24.1295 5.73079 25.0802 6.53043C25.3709 6.77466 25.3944 7.20808 25.1316 7.481L24.8027 7.82061C24.5671 8.06613 24.1799 8.09379 23.9071 7.88858C23.2012 7.35927 22.4086 7.06335 21.4521 7.06335C19.3386 7.06335 17.7326 8.67064 17.7326 10.9238C17.7326 13.1759 19.3386 14.7954 21.4521 14.7954C22.3964 14.7954 23.2405 14.4627 23.9377 13.9526C24.2184 13.7476 24.6109 13.7804 24.8436 14.036L25.1504 14.3712ZM14.9893 15.397C15.1677 15.8284 14.8443 16.3011 14.3686 16.3011H13.6337C13.3607 16.3011 13.1149 16.138 13.0122 15.8896L11.4016 11.9759H3.55755L1.95715 15.8888C1.85533 16.1369 1.60948 16.3011 1.33541 16.3011H0.669865C0.195047 16.3011 -0.129411 15.8284 0.0502283 15.397L6.07963 0.862107C6.18251 0.614772 6.42731 0.452724 6.70033 0.452724H8.32869C8.60065 0.452724 8.84571 0.614772 8.94859 0.862107L14.9893 15.397ZM10.6284 10.0859L7.48562 2.42262L4.33045 10.0859H10.6284Z" fill="#F4F5F7"/>
<path d="M73.032 17.4851C71.336 17.4851 69.8 17.1171 68.424 16.3811C67.064 15.6291 65.992 14.5971 65.208 13.2851C64.44 11.9731 64.056 10.4931 64.056 8.84512C64.056 7.19712 64.448 5.71712 65.232 4.40512C66.016 3.09312 67.088 2.06912 68.448 1.33312C69.824 0.581116 71.36 0.205116 73.056 0.205116C74.432 0.205116 75.688 0.445117 76.824 0.925117C77.96 1.40512 78.92 2.10112 79.704 3.01312L77.688 4.90912C76.472 3.59712 74.976 2.94112 73.2 2.94112C72.048 2.94112 71.016 3.19712 70.104 3.70912C69.192 4.20512 68.48 4.90112 67.968 5.79712C67.456 6.69312 67.2 7.70912 67.2 8.84512C67.2 9.98112 67.456 10.9971 67.968 11.8931C68.48 12.7891 69.192 13.4931 70.104 14.0051C71.016 14.5011 72.048 14.7491 73.2 14.7491C74.976 14.7491 76.472 14.0851 77.688 12.7571L79.704 14.6771C78.92 15.5891 77.952 16.2851 76.8 16.7651C75.664 17.2451 74.408 17.4851 73.032 17.4851Z" fill="white"/>
<path d="M96.9255 17.2451L96.9015 6.10912L91.3815 15.3251H89.9895L84.4695 6.25312V17.2451H81.4935V0.445116H84.0615L90.7335 11.5811L97.2855 0.445116H99.8535L99.8775 17.2451H96.9255Z" fill="white"/>
<path d="M108.423 17.4851C107.127 17.4851 105.871 17.3011 104.655 16.9331C103.455 16.5651 102.503 16.0771 101.799 15.4691L102.879 13.0451C103.567 13.5891 104.407 14.0371 105.399 14.3891C106.407 14.7251 107.415 14.8931 108.423 14.8931C109.671 14.8931 110.599 14.6931 111.207 14.2931C111.831 13.8931 112.143 13.3651 112.143 12.7091C112.143 12.2291 111.967 11.8371 111.615 11.5331C111.279 11.2131 110.847 10.9651 110.319 10.7891C109.791 10.6131 109.071 10.4131 108.159 10.1891C106.879 9.88512 105.839 9.58112 105.039 9.27712C104.255 8.97312 103.575 8.50112 102.999 7.86112C102.439 7.20512 102.159 6.32512 102.159 5.22112C102.159 4.29312 102.407 3.45312 102.903 2.70112C103.415 1.93312 104.175 1.32512 105.183 0.877116C106.207 0.429116 107.455 0.205116 108.927 0.205116C109.951 0.205116 110.959 0.333117 111.951 0.589117C112.943 0.845117 113.799 1.21312 114.519 1.69312L113.535 4.11712C112.799 3.68512 112.031 3.35712 111.231 3.13312C110.431 2.90912 109.655 2.79712 108.903 2.79712C107.671 2.79712 106.751 3.00512 106.143 3.42112C105.551 3.83712 105.255 4.38912 105.255 5.07712C105.255 5.55712 105.423 5.94912 105.759 6.25312C106.111 6.55712 106.551 6.79712 107.079 6.97312C107.607 7.14912 108.327 7.34912 109.239 7.57312C110.487 7.86112 111.511 8.16512 112.311 8.48512C113.111 8.78912 113.791 9.26112 114.351 9.90112C114.927 10.5411 115.215 11.4051 115.215 12.4931C115.215 13.4211 114.959 14.2611 114.447 15.0131C113.951 15.7651 113.191 16.3651 112.167 16.8131C111.143 17.2611 109.895 17.4851 108.423 17.4851Z" fill="white"/>
</svg>
